<?xml version="1.0" encoding="UTF-8"?>
<svg xmlns="http://www.w3.org/2000/svg" id="Layer_3" data-name="Layer 3" viewBox="0 0 64 64" width="512" height="512"><path d="M60,1H8A5.006,5.006,0,0,0,3,6V58a5.006,5.006,0,0,0,5,5H60a1,1,0,0,0,.707-1.707l-.586-.586a3.829,3.829,0,0,1,0-5.414l.586-.586A1,1,0,0,0,60.991,54H61V2A1,1,0,0,0,60,1ZM57.1,57H5.184A3,3,0,0,1,8,55H57.834A5.874,5.874,0,0,0,57.1,57ZM7,3.184V53.1a4.954,4.954,0,0,0-2,.925V6A3,3,0,0,1,7,3.184ZM8,61a3,3,0,0,1-2.816-2H57.1a5.874,5.874,0,0,0,.735,2Zm1-8V3H59V53Z"/><path d="M54,39H29.6a1,1,0,0,1-.976-.778L24.682,20.892A4.975,4.975,0,0,0,19.806,17H14a3,3,0,0,0,0,6h4.4a1,1,0,0,1,.975.778l3.938,17.329A4.975,4.975,0,0,0,28.193,45h2.363A3.959,3.959,0,0,0,30,47a4,4,0,1,0,8,0,3.959,3.959,0,0,0-.556-2h9.112A3.959,3.959,0,0,0,46,47a4,4,0,1,0,8,0,3.959,3.959,0,0,0-.556-2H54a3,3,0,0,0,0-6ZM36,47a2,2,0,1,1-2-2A2,2,0,0,1,36,47Zm16,0a2,2,0,1,1-2-2A2,2,0,0,1,52,47Zm2-4H28.193a2.984,2.984,0,0,1-2.925-2.336L21.329,23.336A2.984,2.984,0,0,0,18.4,21H14a1,1,0,0,1,0-2h5.806a2.985,2.985,0,0,1,2.926,2.335l3.939,17.331A2.985,2.985,0,0,0,29.6,41H54a1,1,0,0,1,0,2Z"/><path d="M28,21a1,1,0,0,0-.978,1.21l3,14A1,1,0,0,0,31,37H53a1,1,0,0,0,.978-.79l3-14A1,1,0,0,0,56,21H49.478a9,9,0,1,0-14.956,0Zm13,3.94V28H36.867l-.714-5h.2A8.951,8.951,0,0,0,41,24.941ZM47.643,23h.2l-.714,5H43v-3.06A8.951,8.951,0,0,0,47.643,23ZM43,30h3.847l-.714,5H43Zm-2,5H37.867l-.714-5H41ZM34.133,23l.714,5H30.308l-1.071-5Zm-3.4,7h4.4l.714,5H31.809Zm21.454,5H48.153l.714-5h4.4Zm1.5-7H49.153l.714-5h4.9ZM42,9a7,7,0,1,1-7,7A7.008,7.008,0,0,1,42,9Z"/><path d="M40,18H38a3,3,0,0,0,3,3v1h2V21a3,3,0,0,0,0-6V13a1,1,0,0,1,1,1h2a3,3,0,0,0-3-3V10H41v1a3,3,0,0,0,0,6v2A1,1,0,0,1,40,18Zm0-4a1,1,0,0,1,1-1v2A1,1,0,0,1,40,14Zm3,3a1,1,0,0,1,0,2Z"/><path d="M12,15H28a1,1,0,0,0,1-1V6a1,1,0,0,0-1-1H12a1,1,0,0,0-1,1v8A1,1,0,0,0,12,15Zm1-8H27v6H13Z"/></svg>
