<?xml version="1.0" encoding="iso-8859-1"?>
<!-- Generator: Adobe Illustrator 19.0.0, SVG Export Plug-In . SVG Version: 6.00 Build 0)  -->
<svg version="1.1" id="Capa_1" xmlns="http://www.w3.org/2000/svg" xmlns:xlink="http://www.w3.org/1999/xlink" x="0px" y="0px"
	 viewBox="0 0 512 512" style="enable-background:new 0 0 512 512;" xml:space="preserve">
<g>
	<g>
		<path d="M508.764,74.466c-2.803-3.503-7.046-5.542-11.533-5.542H104.152L93.16,21.294c-1.547-6.701-7.514-11.448-14.391-11.448
			h-64C6.613,9.846,0,16.459,0,24.616s6.613,14.769,14.769,14.769H67.02l74.612,323.321c1.546,6.701,7.514,11.448,14.391,11.448
			h295.915c8.157,0,14.769-6.613,14.769-14.769c0-8.157-6.613-14.769-14.769-14.769H167.773l-11.36-49.231h296.511
			c6.908,0,12.893-4.788,14.409-11.527L511.64,86.935C512.625,82.557,511.567,77.97,508.764,74.466z M441.108,265.846H149.596
			L110.969,98.462h367.8L441.108,265.846z"/>
	</g>
</g>
<g>
	<g>
		<path d="M216.615,393.846c-29.86,0-54.154,24.293-54.154,54.154s24.293,54.154,54.154,54.154c29.86,0,54.154-24.293,54.154-54.154
			S246.476,393.846,216.615,393.846z M216.615,472.616C203.042,472.616,192,461.573,192,448s11.042-24.615,24.615-24.615
			c13.573,0,24.615,11.042,24.615,24.615S230.188,472.616,216.615,472.616z"/>
	</g>
</g>
<g>
	<g>
		<path d="M393.846,393.846c-29.86,0-54.154,24.293-54.154,54.154s24.293,54.154,54.154,54.154c29.86,0,54.154-24.293,54.154-54.154
			S423.707,393.846,393.846,393.846z M393.846,472.616c-13.573,0-24.615-11.042-24.615-24.615s11.042-24.615,24.615-24.615
			c13.573,0,24.615,11.042,24.615,24.615S407.419,472.616,393.846,472.616z"/>
	</g>
</g>
<g>
</g>
<g>
</g>
<g>
</g>
<g>
</g>
<g>
</g>
<g>
</g>
<g>
</g>
<g>
</g>
<g>
</g>
<g>
</g>
<g>
</g>
<g>
</g>
<g>
</g>
<g>
</g>
<g>
</g>
</svg>
