<svg id="Capa_1" enable-background="new 0 0 512.016 512.016" height="512" viewBox="0 0 512.016 512.016" width="512" xmlns="http://www.w3.org/2000/svg"><g><path d="m448.199 164.387h-236.813l106.048-106.048c5.858-5.858 5.858-15.356 0-21.215l-26.872-26.872c-13.669-13.669-35.831-13.669-49.501 0l-27.63 27.631-14.144-14.144c-15.596-15.597-40.975-15.596-56.572 0l-55.158 55.158c-15.597 15.597-15.597 40.976 0 56.573l14.143 14.144-27.63 27.63c-13.669 13.669-13.669 35.831 0 49.501l26.872 26.872c5.857 5.858 15.356 5.859 21.214 0l38.021-38.021v231.416c0 35.901 29.104 65.005 65.005 65.005h158.012c35.901 0 65.005-29.104 65.005-65.005zm-325.284-35.989-14.143-14.143c-3.899-3.899-3.899-10.244 0-14.144l55.158-55.158c3.9-3.9 10.245-3.899 14.143 0l14.143 14.144zm129.533 299.612c0 8.285-6.716 15.001-15.001 15.001s-15.001-6.716-15.001-15.001v-179.616c0-8.285 6.716-15.001 15.001-15.001s15.001 6.716 15.001 15.001zm66.741 0c0 8.285-6.716 15.001-15.001 15.001s-15.001-6.716-15.001-15.001v-179.616c0-8.285 6.716-15.001 15.001-15.001s15.001 6.716 15.001 15.001zm66.741 0c0 8.285-6.716 15.001-15.001 15.001s-15.001-6.716-15.001-15.001v-179.616c0-8.285 6.716-15.001 15.001-15.001s15.001 6.716 15.001 15.001z"/><path d="m320.898 113.548c-9.151 3.19-15.571 11.361-16.631 20.842h143.932v-24.932c0-17.119-16.845-29.167-33.022-23.682l-93.968 27.672c-.101.029-.211.069-.311.1z"/></g></svg>