<svg height="118" width="356" style="width: 356px; height: 118px; position: absolute; top: 50%; left: 50%; transform: translate(-50%, -50%) scale(1); z-index: 0; cursor: pointer;"><defs id="SvgjsDefs1001"></defs><g id="SvgjsG1007" featurekey="LwVBM5-0" transform="matrix(1.1104313808016655,0,0,1.1104313808016655,-5.552156904008328,4.11593677271222)" fill="#0d0d0d"><path xmlns="http://www.w3.org/2000/svg" d="M83.3,20c-1.3-2.7-3.5-4.7-6.4-5.9c-1.9-0.8-10-3.9-15.2-5.8c-1.1-0.7-2.2-1.2-3-1.2c0,0-0.1,0-0.1,0c0,0,0,0-0.1,0  c0,0,0,0-0.1,0c-2.1,0.5-5.7,1-9.7,1.3c-2,0.1-4-0.2-5.7-0.5c-1.5-0.3-3-0.5-4.1-0.4c-1.5,0.2-2.1,0.7-2.6,1.2  C36.3,8.8,36.2,9,36,9.1c-1.3,0.5-2.7,1-4.1,1.5c-4.8,1.8-9.7,3.6-12.2,5.2C15.3,18.6,5,39.7,5,42c0,3.1,13.2,8.8,15.2,8.8  c0.3,0,0.6-0.1,0.8-0.3c0.5-0.6,1-1.6,1.4-2.8c0.2-0.5,0.4-1.1,0.7-1.6c1.2,5.4,1.9,16.9-0.7,40.9c-0.1,1-0.2,1.6-0.2,1.8  c0,0.6,0.2,1.2,0.7,1.7c2,2.1,8.4,2.5,19.6,2.5c1.5,0,3,0,4.6,0l4.3,0c17.9,0,24.7-0.3,24.8-3.2c0.1-2.4-0.4-8.5-0.9-15  c-0.4-5.2-0.8-10.6-1-14.1c-0.2-6.7-0.1-10.4,1.4-14.8c0.9,1.5,1.7,2.8,2.6,4.3c0.2,0.3,0.5,0.5,0.8,0.5l0.2,0  c6.9,0,15.2-5.5,15.7-7.1c0.2-0.7,0.3-1-8.1-16.7C85.2,23.5,83.7,20.8,83.3,20z M42.7,9.9c1.8,0.3,4,0.7,6.2,0.5  c3.2-0.2,6.1-0.6,8.3-1c-1.7,3.9-5.3,5.3-8.3,5.3c0,0,0,0,0,0c-3.2,0-6.8-1.6-8.3-5.2C41.2,9.6,41.9,9.7,42.7,9.9z M79.6,48.4  c-1-1.5-1.8-2.9-2.8-4.6l-0.6-1c-0.2-0.3-0.5-0.5-0.9-0.5c-0.4,0-0.7,0.3-0.8,0.6c-2.2,5.8-2.5,9.6-2.2,17.6c0.1,3.6,0.6,9,1,14.2  c0.5,6,1,12.3,0.9,14.6c-1.5,1.4-13.8,1.4-22.8,1.4l-4.3,0c-1.5,0-3.1,0-4.6,0c-5.3,0-16.4,0-18.1-1.9c-0.1-0.1-0.1-0.2-0.1-0.3  c0-0.2,0.1-0.7,0.2-1.6c2.4-22.4,2.4-37.1,0-43.8c-0.1-0.3-0.4-0.6-0.7-0.6c-0.1,0-0.2,0-0.2,0c-0.2,0-0.5,0.1-0.7,0.3  c-1,0.9-1.6,2.4-2.2,3.9c-0.3,0.7-0.5,1.3-0.8,1.8C16.9,48.1,7.8,43.5,7,41.9c0.4-2.5,10.3-22.2,13.8-24.4c2.3-1.5,7.2-3.3,11.8-5  c1.4-0.5,2.9-1.1,4.2-1.6c0.1,0,0.1-0.1,0.2-0.1c0.3-0.2,0.5-0.4,0.7-0.6c0.2-0.2,0.4-0.4,0.7-0.5c1.7,4.8,6.3,7,10.4,7c0,0,0,0,0,0  c4.9,0,9-2.9,10.5-7.4c0.4,0.1,0.8,0.3,1.3,0.7c0.1,0,0.1,0.1,0.2,0.1c5,1.9,13.3,5,15.2,5.8c2.5,1,4.3,2.7,5.3,4.9  c0.4,0.9,1.8,3.5,3.5,6.7c2.7,5,7.1,13.3,7.9,15.2C91.6,44,85.4,48.3,79.6,48.4z"></path></g><g id="SvgjsG1008" featurekey="textGroupContainer" transform="matrix(1,0,0,1,355,0)" fill="#0d0d0d"><rect xmlns="http://www.w3.org/2000/svg" y="0" height="1" width="1" opacity="0"></rect><rect xmlns="http://www.w3.org/2000/svg" y="0" x="-235" width="3" height="118"></rect></g><g id="SvgjsG1009" featurekey="YhTCwJ-0" transform="matrix(2.816901408450704,0,0,2.816901408450704,133.0422528763892,14.56338022796201)" fill="#0d0d0d"><path d="M10.66 5.84 l0 1.56 l-7.22 0 l0 4.44 l6.74 0 l0 1.56 l-6.74 0 l0 5.04 l7.58 0 l0 1.56 l-9.26 0 l0 -14.16 l8.9 0 z M17.64 14.48 l0 1.44 l-4.9 0 l0 -1.44 l4.9 0 z M24.42 5.48 q2.58 0 3.96 1.66 l-1.38 1.2 q-0.8 -1.26 -2.58 -1.3 q-1.34 0 -2.18 0.64 t-0.84 1.74 q0 0.96 0.64 1.52 t2.4 1.1 q2.28 0.66 3.23 1.61 t0.95 2.57 q0 1.88 -1.4 3 t-3.58 1.14 q-1.46 0 -2.6 -0.52 t-1.76 -1.44 l1.44 -1.18 q0.46 0.76 1.28 1.17 t1.74 0.41 q1.26 0 2.17 -0.71 t0.91 -1.75 q0 -0.94 -0.53 -1.48 t-1.75 -0.92 l-1.62 -0.54 q-1.82 -0.62 -2.57 -1.55 t-0.75 -2.29 q0 -1.8 1.34 -2.93 t3.48 -1.15 z M33.08 5.84 l0 6 l7.56 0 l0 -6 l1.68 0 l0 14.16 l-1.68 0 l0 -6.6 l-7.56 0 l0 6.6 l-1.68 0 l0 -14.16 l1.68 0 z M47.519999999999996 5.84 l0 14.16 l-1.68 0 l0 -14.16 l1.68 0 z M54.9 5.84 q2.78 0 4.09 0.92 t1.31 2.96 q0 1.5 -0.89 2.47 t-2.65 1.29 l4.02 6.52 l-2.06 0 l-3.84 -6.36 l-2.16 0 l0 6.36 l-1.68 0 l0 -14.16 l3.86 0 z M54.72 12.08 q1.98 0 2.88 -0.55 t0.9 -1.79 q0 -1.2 -0.81 -1.77 t-2.51 -0.57 l-2.46 0 l0 4.68 l2 0 z M72.76 5.84 l0 1.56 l-4.68 0 l0 12.6 l-1.68 0 l0 -12.6 l-4.68 0 l0 -1.56 l11.04 0 z"></path></g><g id="SvgjsG1010" featurekey="duLK5n-0" transform="matrix(0.46680431610222384,0,0,0.46680431610222384,137.20643208389316,79.44191233885623)" fill="#0d0d0d"><path d="M3.38 5.84 l0 8.52 q0 2.16 0.92 3.28 t2.74 1.16 q1.82 -0.02 2.73 -1.15 t0.93 -3.21 l0 -8.6 l1.68 0 l0 8.82 q0 2.7 -1.4 4.19 t-3.94 1.51 q-2.5 0 -3.91 -1.51 t-1.43 -4.21 l0 -8.8 l1.68 0 z M31.592000000000002 5.84 l8.2 11.76 l0.04 0 l0 -11.76 l1.68 0 l0 14.16 l-2.12 0 l-8.2 -11.76 l-0.04 0 l0 11.76 l-1.68 0 l0 -14.16 l2.12 0 z M60.344 5.84 l0 14.16 l-1.68 0 l0 -14.16 l1.68 0 z M83.956 5.48 q2.08 0 3.72 0.95 t2.59 2.61 t0.97 3.7 q0 1.88 -0.97 3.51 t-2.47 2.27 l0 0.04 l4.38 0 l0 1.44 l-8.26 0 q-3.04 0 -5.11 -2.08 t-2.13 -5.18 q0 -2.04 0.96 -3.7 t2.65 -2.61 t3.67 -0.95 z M78.476 12.74 q0 2.4 1.58 4.03 t3.9 1.67 q2.34 0 3.89 -1.65 t1.59 -4.05 q0 -2.42 -1.57 -4.05 t-3.93 -1.65 q-2.3 0 -3.85 1.62 t-1.61 4.08 z M109.428 5.84 l0 8.52 q0 2.16 0.92 3.28 t2.74 1.16 q1.82 -0.02 2.73 -1.15 t0.93 -3.21 l0 -8.6 l1.68 0 l0 8.82 q0 2.7 -1.4 4.19 t-3.94 1.51 q-2.5 0 -3.91 -1.51 t-1.43 -4.21 l0 -8.8 l1.68 0 z M144.42 5.84 l0 1.56 l-7.22 0 l0 4.44 l6.74 0 l0 1.56 l-6.74 0 l0 5.04 l7.58 0 l0 1.56 l-9.26 0 l0 -14.16 l8.9 0 z M185.224 5.84 q3.1 0 5.08 1.95 t2.02 5.13 q0 3.16 -1.99 5.1 t-5.07 1.98 l-5.32 0 l0 -14.16 l5.28 0 z M184.82399999999998 18.44 q2.66 0 4.17 -1.41 t1.53 -4.11 q0 -2.6 -1.48 -4.04 t-4.22 -1.48 l-3.2 0 l0 11.04 l3.2 0 z M217.55599999999998 5.84 l0 1.56 l-7.22 0 l0 4.44 l6.74 0 l0 1.56 l-6.74 0 l0 5.04 l7.58 0 l0 1.56 l-9.26 0 l0 -14.16 l8.9 0 z M238.28799999999998 5.48 q2.58 0 3.96 1.66 l-1.38 1.2 q-0.8 -1.26 -2.58 -1.3 q-1.34 0 -2.18 0.64 t-0.84 1.74 q0 0.96 0.64 1.52 t2.4 1.1 q2.28 0.66 3.23 1.61 t0.95 2.57 q0 1.88 -1.4 3 t-3.58 1.14 q-1.46 0 -2.6 -0.52 t-1.76 -1.44 l1.44 -1.18 q0.46 0.76 1.28 1.17 t1.74 0.41 q1.26 0 2.17 -0.71 t0.91 -1.75 q0 -0.94 -0.53 -1.48 t-1.75 -0.92 l-1.62 -0.54 q-1.82 -0.62 -2.57 -1.55 t-0.75 -2.29 q0 -1.8 1.34 -2.93 t3.48 -1.15 z M260.58 5.84 l0 14.16 l-1.68 0 l0 -14.16 l1.68 0 z M284.532 5.48 q3.14 0 5 1.86 l-1.26 1.32 q-0.74 -0.78 -1.75 -1.2 t-2.11 -0.42 q-2.44 0 -4.05 1.68 t-1.65 4.2 q0.02 2.62 1.66 4.23 t4.2 1.65 q1.84 0 3.52 -0.82 l0 -4.34 l-3.26 0 l0 -1.56 l4.94 0 l0 6.96 q-2.44 1.32 -5.3 1.32 q-3.34 0 -5.43 -2.09 t-2.13 -5.35 q0.02 -3.26 2.16 -5.32 t5.46 -2.12 z M309.044 5.84 l8.2 11.76 l0.04 0 l0 -11.76 l1.68 0 l0 14.16 l-2.12 0 l-8.2 -11.76 l-0.04 0 l0 11.76 l-1.68 0 l0 -14.16 l2.12 0 z M340.256 5.48 q2.58 0 3.96 1.66 l-1.38 1.2 q-0.8 -1.26 -2.58 -1.3 q-1.34 0 -2.18 0.64 t-0.84 1.74 q0 0.96 0.64 1.52 t2.4 1.1 q2.28 0.66 3.23 1.61 t0.95 2.57 q0 1.88 -1.4 3 t-3.58 1.14 q-1.46 0 -2.6 -0.52 t-1.76 -1.44 l1.44 -1.18 q0.46 0.76 1.28 1.17 t1.74 0.41 q1.26 0 2.17 -0.71 t0.91 -1.75 q0 -0.94 -0.53 -1.48 t-1.75 -0.92 l-1.62 -0.54 q-1.82 -0.62 -2.57 -1.55 t-0.75 -2.29 q0 -1.8 1.34 -2.93 t3.48 -1.15 z"></path></g></svg>